<svg xmlns:dc="http://purl.org/dc/elements/1.1/" xmlns:cc="http://creativecommons.org/ns#" xmlns:rdf="http://www.w3.org/1999/02/22-rdf-syntax-ns#" xmlns:svg="http://www.w3.org/2000/svg" xmlns="http://www.w3.org/2000/svg" xmlns:sodipodi="http://sodipodi.sourceforge.net/DTD/sodipodi-0.dtd" xmlns:inkscape="http://www.inkscape.org/namespaces/inkscape" viewBox="0 0 100 125" version="1.1" x="0px" y="0px"><g><path style="opacity:1;fill:#000000;fill-opacity:1;fill-rule:evenodd;stroke:none;stroke-width:3;stroke-linecap:square;stroke-linejoin:miter;stroke-miterlimit:4;stroke-dasharray:none;stroke-dashoffset:20;stroke-opacity:1;paint-order:markers fill stroke" d="m 17.5,10 c 4.129054,0 7.5,3.370946 7.5,7.5 v 65 C 25,86.629054 21.629054,90 17.5,90 13.370946,90 10,86.629054 10,82.5 v -65 C 10,13.370946 13.370946,10 17.5,10 Z"/><path style="opacity:1;fill:#000000;fill-opacity:1;fill-rule:evenodd;stroke:none;stroke-width:3;stroke-linecap:square;stroke-linejoin:miter;stroke-miterlimit:4;stroke-dasharray:none;stroke-dashoffset:20;stroke-opacity:1;paint-order:markers fill stroke" d="M 82.847656,10.002 C 86.750995,9.9085212 89.999708,13.133023 90,17.101562 v 65.8125 C 89.9981,88.307338 84.11526,91.758466 79.519531,89.0625 L 79.488281,89.044922 29.253906,56.15625 c -4.593408,-2.697992 -4.593408,-9.598883 0,-12.296875 l 50.234375,-32.888672 0.0293,-0.01758 c 1.013576,-0.595149 2.159863,-0.922741 3.330078,-0.951172 z"/></g></svg>
