<svg xmlns:dc="http://purl.org/dc/elements/1.1/" xmlns:cc="http://creativecommons.org/ns#" xmlns:rdf="http://www.w3.org/1999/02/22-rdf-syntax-ns#" xmlns:svg="http://www.w3.org/2000/svg" xmlns="http://www.w3.org/2000/svg" xmlns:sodipodi="http://sodipodi.sourceforge.net/DTD/sodipodi-0.dtd" xmlns:inkscape="http://www.inkscape.org/namespaces/inkscape" viewBox="0 0 100 125" version="1.1" x="0px" y="0px"><g><path style="opacity:1;fill:#000000;fill-opacity:1;fill-rule:evenodd;stroke:none;stroke-width:3;stroke-linecap:square;stroke-linejoin:miter;stroke-miterlimit:4;stroke-dasharray:none;stroke-dashoffset:20;stroke-opacity:1;paint-order:markers fill stroke" d="M 82.5,10 C 78.370946,10 75,13.370946 75,17.5 v 65 c 0,4.129054 3.370946,7.5 7.5,7.5 4.129054,0 7.5,-3.370946 7.5,-7.5 v -65 C 90,13.370946 86.629054,10 82.5,10 Z"/><path style="opacity:1;fill:#000000;fill-opacity:1;fill-rule:evenodd;stroke:none;stroke-width:3;stroke-linecap:square;stroke-linejoin:miter;stroke-miterlimit:4;stroke-dasharray:none;stroke-dashoffset:20;stroke-opacity:1;paint-order:markers fill stroke" d="M 17.152344,10.001953 C 13.249005,9.9085212 10.000292,13.133023 10,17.101562 v 65.8125 c 0.0019,5.393276 5.88474,8.844404 10.480469,6.148438 l 0.03125,-0.01758 50.234375,-32.888672 c 4.593408,-2.697992 4.593408,-9.598883 0,-12.296875 l -50.234375,-32.888672 -0.0293,-0.01758 c -1.013576,-0.595149 -2.159863,-0.922741 -3.330078,-0.951172 z"/></g></svg>
