<svg xmlns="http://www.w3.org/2000/svg" xmlns:xlink="http://www.w3.org/1999/xlink" xml:space="preserve" version="1.1" style="shape-rendering:geometricPrecision;text-rendering:geometricPrecision;image-rendering:optimizeQuality;" viewBox="0 0 847 1058.75" x="0px" y="0px" fill-rule="evenodd" clip-rule="evenodd"><defs><style type="text/css">
   
    .fil0 {fill:black}
   
  </style></defs><g><path class="fil0" d="M423 13c227,0 411,184 411,410 0,227 -184,411 -411,411 -226,0 -410,-184 -410,-411 0,-226 184,-410 410,-410zm-131 201c20,0 40,0 59,0 10,0 19,8 19,18 0,128 0,255 0,382 0,11 -9,19 -19,19 -19,0 -39,0 -59,0 -10,0 -18,-8 -18,-19 0,-127 0,-254 0,-382 0,-10 8,-18 18,-18zm204 0c19,0 39,0 58,0 10,0 19,8 19,18 0,128 0,255 0,382 0,11 -9,19 -19,19 -19,0 -39,0 -58,0 -11,0 -19,-8 -19,-19 0,-127 0,-254 0,-382 0,-10 8,-18 19,-18z"/></g></svg>
